<?xml version="1.0" encoding="utf-8"?>
<!-- Generator: Adobe Illustrator 16.0.0, SVG Export Plug-In . SVG Version: 6.00 Build 0)  -->
<!DOCTYPE svg PUBLIC "-//W3C//DTD SVG 1.1//EN" "http://www.w3.org/Graphics/SVG/1.1/DTD/svg11.dtd">
<svg version="1.1" xmlns="http://www.w3.org/2000/svg" xmlns:xlink="http://www.w3.org/1999/xlink" x="0px" y="0px"
	 width="916.345px" height="201.146px" viewBox="0 0 916.345 201.146" enable-background="new 0 0 916.345 201.146"
	 xml:space="preserve">
<g id="background">
</g>
<g id="圖層_1">
	<g>
		<path fill="#2A1C3C" d="M474.793,68.142h407.48c18.739,0,34.071-15.332,34.071-34.07C916.345,15.332,901.013,0,882.273,0h-407.48
			c-18.739,0-34.071,15.332-34.071,34.071C440.722,52.81,456.054,68.142,474.793,68.142"/>
		<path fill="#2A1C3C" d="M495.076,100.29L495.076,100.29c0-18.738-15.332-34.07-34.071-34.07H677.22
			c-18.739,0-34.07,15.332-34.07,34.07c0,18.74,15.331,34.072,34.07,34.072H461.005C479.744,134.362,495.076,119.03,495.076,100.29"
			/>
		<path fill="#2A1C3C" d="M34.071,201.146h683.02c18.739,0,34.071-15.332,34.071-34.071s-15.332-34.071-34.071-34.071H34.071
			C15.332,133.003,0,148.335,0,167.074S15.332,201.146,34.071,201.146"/>
	</g>
</g>
</svg>
