<?xml version="1.0" encoding="utf-8"?>
<!-- Generator: Adobe Illustrator 16.0.0, SVG Export Plug-In . SVG Version: 6.00 Build 0)  -->
<!DOCTYPE svg PUBLIC "-//W3C//DTD SVG 1.1//EN" "http://www.w3.org/Graphics/SVG/1.1/DTD/svg11.dtd">
<svg version="1.1" xmlns="http://www.w3.org/2000/svg" xmlns:xlink="http://www.w3.org/1999/xlink" x="0px" y="0px"
	 width="916.345px" height="200.863px" viewBox="0 0 916.345 200.863" enable-background="new 0 0 916.345 200.863"
	 xml:space="preserve">
<g id="background">
</g>
<g id="圖層_1">
	<g>
		<path fill="#2A1C3C" d="M441.552,67.86H34.071C15.332,67.86,0,52.528,0,33.789S15.332-0.282,34.071-0.282h407.48
			c18.739,0,34.071,15.332,34.071,34.071S460.291,67.86,441.552,67.86"/>
		<path fill="#2A1C3C" d="M421.269,100.009L421.269,100.009c0-18.739,15.332-34.071,34.071-34.071H239.125
			c18.739,0,34.071,15.332,34.071,34.071s-15.332,34.071-34.071,34.071H455.34C436.601,134.08,421.269,118.748,421.269,100.009"/>
		<path fill="#2A1C3C" d="M882.273,200.863h-683.02c-18.739,0-34.071-15.332-34.071-34.071s15.332-34.07,34.071-34.07h683.02
			c18.739,0,34.071,15.331,34.071,34.07S901.013,200.863,882.273,200.863"/>
	</g>
</g>
</svg>
