<?xml version="1.0" encoding="utf-8"?>
<!-- Generator: Adobe Illustrator 16.0.0, SVG Export Plug-In . SVG Version: 6.00 Build 0)  -->
<!DOCTYPE svg PUBLIC "-//W3C//DTD SVG 1.1//EN" "http://www.w3.org/Graphics/SVG/1.1/DTD/svg11.dtd">
<svg version="1.1" xmlns="http://www.w3.org/2000/svg" xmlns:xlink="http://www.w3.org/1999/xlink" x="0px" y="0px"
	 width="246.341px" height="41.986px" viewBox="0 0 246.341 41.986" enable-background="new 0 0 246.341 41.986"
	 xml:space="preserve">
<g id="background">
</g>
<g id="圖層_1">
	<g>
		<path fill="#F8EE93" d="M41.264,21.147c0,2.73-0.534,5.461-1.604,8.015c-1.067,2.434-2.553,4.631-4.453,6.53
			c-1.899,1.9-4.096,3.385-6.53,4.453c-2.554,1.068-5.284,1.604-8.074,1.604c-2.731,0-5.463-0.535-8.017-1.604
			c-2.434-1.068-4.631-2.553-6.53-4.453c-1.899-1.899-3.384-4.097-4.452-6.53C0.535,26.608,0,23.878,0,21.147
			c0-2.791,0.535-5.521,1.604-8.076c1.068-2.434,2.553-4.631,4.452-6.529c1.899-1.9,4.097-3.385,6.53-4.454
			c2.554-1.067,5.226-1.603,7.957-1.603c6.709-0.178,12.705,2.613,17.158,8.55c1.01,1.364,0.356,3.265-1.068,4.097
			c-1.484,0.831-3.088,0.178-4.156-1.068c-3.384-3.979-7.243-5.641-11.934-5.641c-8.074,0.059-14.605,6.59-14.605,14.725
			c0,8.074,6.59,14.664,14.665,14.664c7.124,0,13.062-5.047,14.427-11.697H22.146c-1.662,0-2.968-1.364-2.968-2.967
			c0-1.664,1.306-2.97,2.968-2.97h16.149C39.898,18.178,41.264,19.483,41.264,21.147"/>
		<path fill="#F8EE93" d="M71.604,38.84c0,1.662-1.364,2.968-2.967,2.968H48.152h-0.119h-0.118c-1.663,0-2.969-1.306-2.969-2.968
			V3.336c0-1.663,1.306-2.97,2.969-2.97h0.118h0.119h20.484c1.603,0,2.967,1.307,2.967,2.97c0,1.662-1.364,2.968-2.967,2.968H50.883
			v11.934H64.42c1.604,0,2.969,1.307,2.969,2.969c0,1.663-1.365,2.969-2.969,2.969H50.883v11.696h17.754
			C70.239,35.871,71.604,37.177,71.604,38.84"/>
		<path fill="#F8EE93" d="M78.135,0.248h23.868c1.603,0,2.909,1.306,2.909,2.968c0,1.604-1.307,2.91-2.909,2.91h-9.025v32.832
			c0,1.663-1.306,2.969-2.909,2.969c-1.662,0-2.969-1.306-2.969-2.969V6.126h-8.965c-1.663,0-2.969-1.307-2.969-2.91
			C75.166,1.554,76.472,0.248,78.135,0.248"/>
		<path fill="#F8EE93" d="M124.922,20.909c0-11.162,9.084-20.542,20.542-20.542c11.459,0,20.543,9.38,20.543,20.542
			c0,11.459-9.084,20.898-20.543,20.898C134.006,41.808,124.922,32.368,124.922,20.909 M130.681,20.909
			c0,8.432,6.649,15.141,14.783,15.141c8.135,0,14.844-6.709,14.844-15.141c0-8.134-6.709-14.783-14.844-14.783
			C137.33,6.126,130.681,12.775,130.681,20.909"/>
		<path fill="#F8EE93" d="M198.722,41.511c-0.476,0.356-1.068,0.476-1.603,0.476c-0.95,0-1.9-0.476-2.494-1.365l-19.414-27.905
			v26.361c0,1.604-1.307,2.909-2.909,2.909c-1.604,0-2.969-1.306-2.969-2.909V3.395c-0.119-1.128,0.355-2.257,1.365-2.909
			c1.365-0.891,3.206-0.534,4.097,0.891l19.355,28.736V2.979c0-1.663,1.365-2.969,2.969-2.969c1.603,0,2.909,1.306,2.909,2.969
			v35.623C200.205,39.73,199.731,40.858,198.722,41.511"/>
		<path fill="#F8EE93" d="M246.341,3.276v26.42c0,1.604-1.308,2.909-2.909,2.909c-1.663,0-2.969-1.306-2.969-2.909V3.276
			c0-1.663,1.306-2.969,2.969-2.969C245.033,0.308,246.341,1.613,246.341,3.276 M245.509,36.88c0.535,0.535,0.832,1.307,0.832,2.078
			c0,0.772-0.297,1.545-0.832,2.078c-0.534,0.534-1.306,0.891-2.077,0.891c-0.773,0-1.544-0.356-2.078-0.891
			c-0.535-0.533-0.891-1.306-0.891-2.078c0-0.771,0.355-1.543,0.891-2.078c0.534-0.533,1.305-0.83,2.078-0.83
			C244.203,36.05,244.975,36.347,245.509,36.88"/>
	</g>
</g>
</svg>
