<?xml version="1.0" encoding="utf-8"?>
<!-- Generator: Adobe Illustrator 16.0.0, SVG Export Plug-In . SVG Version: 6.00 Build 0)  -->
<!DOCTYPE svg PUBLIC "-//W3C//DTD SVG 1.1//EN" "http://www.w3.org/Graphics/SVG/1.1/DTD/svg11.dtd">
<svg version="1.1" xmlns="http://www.w3.org/2000/svg" xmlns:xlink="http://www.w3.org/1999/xlink" x="0px" y="0px"
	 width="387.001px" height="416.591px" viewBox="0 0 387.001 416.591" enable-background="new 0 0 387.001 416.591"
	 xml:space="preserve">
<g id="background">
</g>
<g id="圖層_1">
	<g>
		<g>
			<path fill="#015078" d="M85.524,375.947v-16.183c0-22.353,18.289-40.643,40.643-40.643h132.535
				c22.354,0,40.644,18.29,40.644,40.643v16.183c0,22.354-18.29,40.644-40.644,40.644H126.167
				C103.813,416.591,85.524,398.302,85.524,375.947"/>
			<g>
				<path fill="#002537" d="M135.043,406.576h-3.375c-4.663,0-8.477-3.815-8.477-8.478V383.57c0-4.662,3.814-8.478,8.477-8.478
					h3.375c4.662,0,8.477,3.815,8.477,8.478v14.528C143.52,402.761,139.705,406.576,135.043,406.576"/>
				<path fill="#002537" d="M166.695,406.576h-3.375c-4.663,0-8.477-3.815-8.477-8.478V383.57c0-4.662,3.814-8.478,8.477-8.478
					h3.375c4.662,0,8.477,3.815,8.477,8.478v14.528C175.172,402.761,171.357,406.576,166.695,406.576"/>
				<path fill="#002537" d="M195.577,406.576h-3.375c-4.663,0-8.477-3.815-8.477-8.478V383.57c0-4.662,3.814-8.478,8.477-8.478
					h3.375c4.662,0,8.477,3.815,8.477,8.478v14.528C204.054,402.761,200.239,406.576,195.577,406.576"/>
				<path fill="#002537" d="M225.908,406.576h-3.375c-4.663,0-8.478-3.815-8.478-8.478V383.57c0-4.662,3.814-8.478,8.478-8.478
					h3.375c4.662,0,8.477,3.815,8.477,8.478v14.528C234.384,402.761,230.57,406.576,225.908,406.576"/>
				<path fill="#002537" d="M254.954,406.576h-3.375c-4.663,0-8.477-3.815-8.477-8.478V383.57c0-4.662,3.813-8.478,8.477-8.478
					h3.375c4.662,0,8.478,3.815,8.478,8.478v14.528C263.431,402.761,259.616,406.576,254.954,406.576"/>
			</g>
			<path fill="#015078" d="M119.484,295.151h-19.383c-26.776,0-48.683-21.907-48.683-48.684v-120.39
				c0-26.776,21.907-48.683,48.683-48.683h19.383c26.775,0,48.683,21.906,48.683,48.683v120.39
				C168.167,273.244,146.259,295.151,119.484,295.151"/>
			<path fill="#015078" d="M284.18,295.151h-19.383c-26.775,0-48.683-21.907-48.683-48.684v-120.39
				c0-26.776,21.907-48.683,48.683-48.683h19.383c26.776,0,48.684,21.906,48.684,48.683v120.39
				C332.864,273.244,310.957,295.151,284.18,295.151"/>
			<path fill="#0E96A6" d="M202.314,295.151h-19.759c-49.038,0-89.16-40.122-89.16-89.16V89.16c0-49.038,40.122-89.16,89.16-89.16
				h19.759c49.038,0,89.16,40.122,89.16,89.16v116.831C291.474,255.029,251.352,295.151,202.314,295.151"/>
			<path fill="#0E96A6" d="M202.314,381.729h-19.759c-49.038,0-89.16-40.121-89.16-89.159V175.737
				c0-49.037,40.122-89.159,89.16-89.159h19.759c49.038,0,89.16,40.122,89.16,89.159v116.832
				C291.474,341.607,251.352,381.729,202.314,381.729"/>
			<path fill="#0E96A6" d="M349.235,372.269l10.987-13.008c15.24-18.044,12.967-45.024-5.076-60.265l-61.168-51.665
				c-18.044-15.24-45.025-12.967-60.266,5.077l-10.987,13.008c-15.24,18.043-12.967,45.025,5.077,60.265l61.168,51.664
				C307.013,392.585,333.996,390.313,349.235,372.269"/>
			<path fill="#0E96A6" d="M31.042,374.556l-10.987-13.008c-15.24-18.044-12.967-45.025,5.076-60.265L86.3,249.618
				c18.043-15.24,45.025-12.967,60.265,5.077l10.987,13.008c15.24,18.043,12.967,45.024-5.077,60.265l-61.168,51.664
				C73.264,394.872,46.282,392.599,31.042,374.556"/>
			<path fill="#040821" d="M259.778,200.046H125.09c-10.037,0-18.25-8.213-18.25-18.25v-51.389c0-10.039,8.213-18.25,18.25-18.25
				h134.688c10.037,0,18.25,8.211,18.25,18.25v51.389C278.028,191.833,269.815,200.046,259.778,200.046"/>
			<path fill="#FFFFFF" d="M232.178,192.175H151.82c-16.546,0-30.085-13.537-30.085-30.085v-11.978
				c0-16.547,13.539-30.085,30.085-30.085h80.358c16.547,0,30.085,13.538,30.085,30.085v11.978
				C262.263,178.638,248.725,192.175,232.178,192.175"/>
			<path fill="#9ED3F3" d="M112.881,390.523H100.8c-16.688,0-30.341-13.654-30.341-30.342v-95.687
				c0-16.688,13.653-30.342,30.341-30.342h12.081c16.688,0,30.342,13.654,30.342,30.342v95.687
				C143.223,376.869,129.569,390.523,112.881,390.523"/>
			<path fill="#9ED3F3" d="M284.069,396.428h-12.081c-16.688,0-30.341-13.654-30.341-30.342V264.494
				c0-16.687,13.652-30.341,30.341-30.341h12.081c16.688,0,30.342,13.654,30.342,30.341v101.592
				C314.411,382.773,300.756,396.428,284.069,396.428"/>
			<path fill="#7CBBD0" d="M270.453,104.485c-5.522,0-10-4.478-10-10c0-31.992-26.026-58.019-58.018-58.019c-5.523,0-10-4.478-10-10
				c0-5.523,4.477-10,10-10c43.019,0,78.018,34.999,78.018,78.019C280.453,100.008,275.975,104.485,270.453,104.485z"/>
			<path fill="#FDFEFF" d="M301.849,280.037c-2.762,0-5-2.238-5-5c0-18.386-4.122-22.875-21.001-22.875c-2.762,0-5-2.238-5-5
				s2.238-5,5-5c25.815,0,31.001,12.579,31.001,32.875C306.849,277.799,304.611,280.037,301.849,280.037z"/>
			<path fill="#FDFEFF" d="M128.694,280.037c-2.761,0-5-2.238-5-5c0-18.386-4.122-22.875-21.001-22.875c-2.761,0-5-2.238-5-5
				s2.239-5,5-5c25.815,0,31.001,12.579,31.001,32.875C133.694,277.799,131.455,280.037,128.694,280.037z"/>
			<path fill="#015078" d="M16.819,367.856h6.697c9.25,0,16.819-7.569,16.819-16.819v-82.298c0-9.251-7.569-16.818-16.819-16.818
				h-6.697C7.568,251.921,0,259.488,0,268.739v82.298C0,360.287,7.568,367.856,16.819,367.856"/>
			<path fill="#015078" d="M363.485,367.856h6.697c9.25,0,16.819-7.569,16.819-16.819v-82.298c0-9.251-7.569-16.818-16.819-16.818
				h-6.697c-9.251,0-16.818,7.567-16.818,16.818v82.298C346.667,360.287,354.234,367.856,363.485,367.856"/>
		</g>
		<g>
			<path fill="#040821" d="M155.758,150.61l-7.271,18.982c-0.252,0.629-0.851,1.039-1.48,1.039h-0.031
				c-0.661,0-1.26-0.441-1.48-1.039l-3.431-8.846l-3.494,8.846c-0.252,0.629-0.85,1.039-1.48,1.039h-0.031
				c-0.661,0-1.26-0.441-1.48-1.039l-7.051-18.856c-0.315-0.817,0.094-1.731,0.913-2.015c0.818-0.315,1.7,0.095,2.015,0.912
				l5.634,15.048l3.494-8.845c0.252-0.631,0.85-1.039,1.48-1.009c0.661-0.03,1.259,0.378,1.48,1.009l3.462,8.845l5.824-15.173
				c0.314-0.818,1.196-1.229,2.014-0.914C155.664,148.88,156.073,149.792,155.758,150.61"/>
			<path fill="#040821" d="M170.21,162.729c0,0.85-0.692,1.542-1.574,1.542h-10.86c0.661,1.89,2.424,3.243,4.533,3.243
				c0.724,0,2.014-0.063,3.526-1.039c0.724-0.472,1.699-0.031,2.077,0.725c0.378,0.787-0.032,1.604-0.755,2.078
				c-2.078,1.383-3.683,1.353-4.848,1.353c-4.376,0-7.901-3.558-7.901-7.901c0-4.376,3.525-7.9,7.901-7.9
				C166.118,154.829,170.21,157.599,170.21,162.729 M157.776,161.155h9.097c-0.66-2.203-2.675-3.211-4.564-3.211
				C160.2,157.944,158.437,159.299,157.776,161.155"/>
			<path fill="#040821" d="M187.935,162.667c0,4.344-3.526,7.9-7.902,7.9c-4.344,0-7.901-3.557-7.901-7.9v-0.031v-14.104
				c0-0.85,0.693-1.541,1.574-1.541c0.85,0,1.543,0.691,1.543,1.541v7.84c1.322-1.009,2.99-1.606,4.784-1.606
				C184.409,154.766,187.935,158.292,187.935,162.667 M184.818,162.667c0-2.645-2.14-4.785-4.785-4.785
				c-2.644,0-4.784,2.141-4.784,4.754v0.031c0,2.645,2.14,4.785,4.784,4.785C182.678,167.452,184.818,165.279,184.818,162.667"/>
			<path fill="#040821" d="M199.365,159.677c0-6.201,5.068-11.082,11.112-11.082c3.966,0,7.523,2.047,9.412,5.446
				c0.566,0.945,0.188,1.921-0.566,2.267c-0.725,0.377-1.7,0.189-2.078-0.566c-1.48-2.455-3.966-3.936-6.768-3.936
				c-4.313,0-7.901,3.559-7.901,7.871c0,4.344,3.589,7.744,7.901,7.744c2.612,0,5.1-1.324,6.578-3.59
				c0.379-0.755,1.543-0.943,2.078-0.378c0.756,0.378,1.134,1.354,0.566,2.078c-2.077,3.211-5.445,5.101-9.223,5.101
				C204.433,170.632,199.365,165.72,199.365,159.677"/>
			<path fill="#040821" d="M222.032,169.089v-20.494c0-0.85,0.691-1.541,1.574-1.541c0.85,0,1.542,0.691,1.542,1.541v20.494
				c0,0.881-0.692,1.573-1.542,1.573C222.723,170.662,222.032,169.97,222.032,169.089"/>
			<path fill="#040821" d="M239.849,156.402v7.901v0.031c-0.031,3.494-2.864,6.327-6.39,6.327c-3.494,0-6.328-2.833-6.359-6.327
				v-0.031v-7.901c0-0.851,0.692-1.542,1.543-1.542c0.881,0,1.573,0.691,1.573,1.542v7.87c0,1.794,1.448,3.273,3.243,3.273
				c1.825,0,3.273-1.479,3.273-3.273v-7.87c0-0.851,0.692-1.542,1.574-1.542C239.157,154.86,239.849,155.552,239.849,156.402"/>
			<path fill="#040821" d="M257.605,162.667c0,4.344-3.525,7.9-7.901,7.9c-4.344,0-7.902-3.557-7.902-7.9v-0.031v-14.104
				c0-0.85,0.693-1.541,1.575-1.541c0.85,0,1.542,0.691,1.542,1.541v7.84c1.322-1.009,2.991-1.606,4.785-1.606
				C254.08,154.766,257.605,158.292,257.605,162.667 M254.489,162.667c0-2.645-2.141-4.785-4.785-4.785s-4.785,2.141-4.785,4.754
				v0.031c0,2.645,2.141,4.785,4.785,4.785S254.489,165.279,254.489,162.667"/>
		</g>
	</g>
</g>
</svg>
